<svg id="Layer_1" data-name="Layer 1" xmlns="http://www.w3.org/2000/svg" xmlns:xlink="http://www.w3.org/1999/xlink" viewBox="0 0 2308.35 255.12"><defs><style>.cls-1{fill:none;}.cls-2{clip-path:url(#clip-path);}.cls-3{fill:url(#linear-gradient);}.cls-4{clip-path:url(#clip-path-2);}.cls-5{clip-path:url(#clip-path-3);}.cls-6{clip-path:url(#clip-path-4);}.cls-7{clip-path:url(#clip-path-5);}.cls-8{clip-path:url(#clip-path-6);}.cls-9{clip-path:url(#clip-path-7);}.cls-10{clip-path:url(#clip-path-8);}.cls-11{clip-path:url(#clip-path-9);}.cls-12{clip-path:url(#clip-path-10);}</style><clipPath id="clip-path"><path class="cls-1" d="M742.44,177.67c-13.82,13.63-31.68,20-51.07,20-49.92,0-71-34.37-71.23-69.31-.19-35.14,22.65-70.85,71.23-70.85,18.24,0,35.52,6.91,49.35,20.54l-16.9,16.32C715,85.7,703.08,81.67,691.37,81.67c-32.45,0-46.46,24.19-46.27,46.66.19,22.27,13,45.5,46.27,45.5,11.71,0,25-4.8,33.79-13.63Z"/></clipPath><linearGradient id="linear-gradient" x1="608.62" y1="127.8" x2="1706.47" y2="127.8" gradientUnits="userSpaceOnUse"><stop offset="0.02" stop-color="#f6eb16"/><stop offset="0.49" stop-color="#f58020"/><stop offset="1" stop-color="#ed2124"/></linearGradient><clipPath id="clip-path-2"><path class="cls-1" d="M847.08,147.33c0,27.27-18.62,49.35-49.34,49.35s-49.16-22.08-49.16-49.35c0-27.07,18.82-49.34,49-49.34S847.08,120.26,847.08,147.33Zm-75.07,0c0,14.41,8.64,27.84,25.73,27.84s25.72-13.43,25.72-27.84c0-14.2-10-28-25.72-28C780.84,119.3,772,133.13,772,147.33Z"/></clipPath><clipPath id="clip-path-3"><path class="cls-1" d="M932.9,194.57V145c0-14.4-7.87-25.34-22.85-25.34-14.4,0-24.19,12.09-24.19,26.49v48.39H862.63V99.72h20.93l1.53,12.86c9.6-9.41,19.2-14.21,31.11-14.21,22.27,0,40.13,16.71,40.13,46.47v49.73Z"/></clipPath><clipPath id="clip-path-4"><path class="cls-1" d="M1005.48,73.22V100.1h26.11v20.16h-26.3v40.9c0,9,5,13.44,12.28,13.44a26.71,26.71,0,0,0,11.33-2.88l6.53,20a52.45,52.45,0,0,1-19.39,4c-20.55.77-34-10.94-34-34.56v-40.9H964.39V100.1h17.66V75.72Z"/></clipPath><clipPath id="clip-path-5"><path class="cls-1" d="M1124.13,99.91h22.47v94.66h-22.08l-1.16-13.83c-5.37,11.14-20.16,16.52-30.72,16.71-28,.19-48.77-17.09-48.77-50.31,0-32.64,21.7-49.72,49.35-49.53,12.67,0,24.77,6,30.14,15.36Zm-56.83,47.23c0,18.05,12.48,28.8,28,28.8,36.87,0,36.87-57.4,0-57.4C1079.78,118.54,1067.3,129.09,1067.3,147.14Z"/></clipPath><clipPath id="clip-path-6"><path class="cls-1" d="M1249.7,182.47c-11,10.75-22.47,15-36.48,15-27.46,0-50.31-16.51-50.31-50.12s22.85-50.11,50.31-50.11c13.44,0,23.8,3.84,34.17,14l-14.78,15.55a28.77,28.77,0,0,0-19-7.49c-15.74,0-27.27,11.52-27.27,28,0,18,12.29,27.65,26.89,27.65,7.48,0,15-2.11,20.73-7.87Z"/></clipPath><clipPath id="clip-path-7"><path class="cls-1" d="M1293.08,73.22V100.1h26.12v20.16h-26.31v40.9c0,9,5,13.44,12.29,13.44a26.75,26.75,0,0,0,11.33-2.88l6.53,20a52.45,52.45,0,0,1-19.39,4c-20.55.77-34-10.94-34-34.56v-40.9H1252V100.1h17.66V75.72Z"/></clipPath><clipPath id="clip-path-8"><path class="cls-1" d="M1494.3,97.22l-43.78,58.37h-5L1402.71,97v97.73h-25.34V60.36h29.18l42,57.79,42.05-57.79h29v134.4H1494.3Z"/></clipPath><clipPath id="clip-path-9"><path class="cls-1" d="M1561.69,155.59c1.54,11.71,11.71,20.16,28.22,20.16,8.64,0,20-3.26,25.35-8.83l15,14.78c-10,10.37-26.3,15.36-40.7,15.36-32.64,0-52-20.16-52-50.49,0-28.8,19.58-49.54,50.3-49.54,31.68,0,51.46,19.59,47.81,58.56Zm51.46-19.39c-1.54-12.29-11.14-18.43-24.58-18.43-12.67,0-23,6.14-26.5,18.43Z"/></clipPath><clipPath id="clip-path-10"><path class="cls-1" d="M1688.22,180.74c0,20.16-30.72,20.16-30.72,0C1657.5,160.39,1688.22,160.39,1688.22,180.74Zm-2.88-120.38v99.07h-25.16V60.36Z"/></clipPath></defs><title>contact</title><g class="cls-2"><rect class="cls-3" x="608.62" y="22.05" width="1097.85" height="211.51"/></g><g class="cls-4"><rect class="cls-3" x="608.62" y="22.05" width="1097.85" height="211.51"/></g><g class="cls-5"><rect class="cls-3" x="608.62" y="22.05" width="1097.85" height="211.51"/></g><g class="cls-6"><rect class="cls-3" x="608.62" y="22.05" width="1097.85" height="211.51"/></g><g class="cls-7"><rect class="cls-3" x="608.62" y="22.05" width="1097.85" height="211.51"/></g><g class="cls-8"><rect class="cls-3" x="608.62" y="22.05" width="1097.85" height="211.51"/></g><g class="cls-9"><rect class="cls-3" x="608.62" y="22.05" width="1097.85" height="211.51"/></g><g class="cls-10"><rect class="cls-3" x="608.62" y="22.05" width="1097.85" height="211.51"/></g><g class="cls-11"><rect class="cls-3" x="608.62" y="22.05" width="1097.85" height="211.51"/></g><g class="cls-12"><rect class="cls-3" x="608.62" y="22.05" width="1097.85" height="211.51"/></g></svg>