<svg id="Layer_1" data-name="Layer 1" xmlns="http://www.w3.org/2000/svg" viewBox="0 0 1275.59 255.12"><defs><style>.cls-1{fill:#fff;}</style></defs><title>namecolour</title><path class="cls-1" d="M126.44,96.37C127,131,105.91,166,58,166H4.22V29.1H58C104.93,29.1,125.85,62.54,126.44,96.37Zm-96.6,44.78H58c31.09,0,43.41-22.68,42.82-45C100.24,74.86,87.72,53.54,58,53.54H29.84Z"/><path class="cls-1" d="M220.1,69.58H243V166H220.5l-1.18-14.07c-5.47,11.34-20.53,16.81-31.29,17-28.55.19-49.67-17.41-49.67-51.24,0-33.24,22.1-50.64,50.26-50.45,12.91,0,25.23,6.06,30.7,15.65Zm-57.88,48.1c0,18.39,12.71,29.34,28.55,29.34,37.55,0,37.55-58.47,0-58.47C174.93,88.55,162.22,99.3,162.22,117.68Z"/><path class="cls-1" d="M285.22,69.58,287,80.72C294.41,68.8,304.39,67,314.16,67c10,0,19.56,3.91,24.84,9.19L328.24,97c-4.89-4.11-9.38-6.26-17.21-6.26-12.51,0-24,6.65-24,24.44V166H263.12V69.58Z"/><path class="cls-1" d="M370.09,69.58l1.76,11.14C379.28,68.8,389.25,67,399,67c10,0,19.55,3.91,24.83,9.19L413.11,97c-4.89-4.11-9.39-6.26-17.21-6.26-12.51,0-24,6.65-24,24.44V166H348V69.58Z"/><path class="cls-1" d="M453.19,126.29c1.57,11.93,11.93,20.53,28.75,20.53,8.8,0,20.34-3.32,25.81-9l15.26,15c-10.17,10.56-26.79,15.65-41.46,15.65-33.24,0-53-20.54-53-51.43,0-29.34,19.95-50.45,51.24-50.45,32.27,0,52.41,19.94,48.69,59.64Zm52.41-19.75C504,94,494.26,87.76,480.57,87.76c-12.9,0-23.46,6.26-27,18.78Z"/><path class="cls-1" d="M617.85,166V115.53c0-14.66-8-25.81-23.27-25.81-14.67,0-24.64,12.32-24.64,27V166H546.27V69.38h21.32l1.56,13.1C578.93,72.9,588.71,68,600.83,68c22.69,0,40.87,17,40.87,47.33V166Z"/><path class="cls-1" d="M768,125.7H729.31V166H703.49V29.1c21.52,0,43-.2,64.54-.2C834.9,28.9,835.1,125.7,768,125.7ZM729.31,102H768c33,0,32.85-48.5,0-48.5H729.31Z"/><path class="cls-1" d="M857.78,29.1V82.68C866.39,71.53,877,68.21,887.9,68.21c27.37,0,39.5,18.58,39.5,46.93V166H903.54V115.34c0-17.6-9.19-25-21.9-25-14.08,0-23.86,11.93-23.86,26.4V166H833.93V29.1Z"/><path class="cls-1" d="M970,69.58V120c0,14.67,8,25.81,23.27,25.81,14.66,0,24.64-12.32,24.64-27V69.58h23.66v96.6h-21.32l-1.56-13.1c-10,9.78-19.16,14.47-32.66,14.47-23.07,0-39.89-17.4-39.89-47.32V69.58Z"/><path class="cls-1" d="M1133.7,166V115.53c0-14.66-8-25.81-23.27-25.81-14.66,0-24.64,12.32-24.64,27V166h-23.66V69.38h21.32l1.56,13.1c9.78-9.58,19.56-14.47,31.68-14.47,22.68,0,40.87,17,40.87,47.33V166Z"/><path class="cls-1" d="M1253.77,59.8l17.6,13.3-10.76,13.69c7.43,8.41,10.17,18,10.17,28.55,0,11.93-4.5,28.74-20.34,36,16,8,20,19.55,20,31.87,0,26.6-20.34,43-48.3,43s-48.89-17-48.89-43h23.66c0,12.52,11.54,20.73,25.23,20.73s24.44-7.43,24.44-20.73-12.51-19.36-24.44-19.36c-30.11,0-48.89-18.38-48.89-48.49s21.9-48.89,48.89-48.89c7.63,0,15.45,1,22.1,5.48Zm-56.91,55.54c0,16.81,11.35,26.79,25.23,26.79,13.69,0,25-10.17,25-26.79s-11.34-27.18-25-27.18C1208.21,88.16,1196.86,98.52,1196.86,115.34Z"/></svg>