<svg id="Layer_1" data-name="Layer 1" xmlns="http://www.w3.org/2000/svg" xmlns:xlink="http://www.w3.org/1999/xlink" viewBox="0 0 2296.23 255.12"><defs><style>.cls-1{fill:none;}.cls-2{clip-path:url(#clip-path);}.cls-3{fill:url(#linear-gradient);}.cls-4{clip-path:url(#clip-path-2);}.cls-5{clip-path:url(#clip-path-3);}.cls-6{clip-path:url(#clip-path-4);}.cls-7{clip-path:url(#clip-path-5);}.cls-8{clip-path:url(#clip-path-6);}.cls-9{clip-path:url(#clip-path-7);}.cls-10{clip-path:url(#clip-path-8);}</style><clipPath id="clip-path"><path class="cls-1" d="M829.69,155h-38v39.56H766.33V60.17c21.12,0,42.24-.2,63.36-.2C895.35,60,895.54,155,829.69,155Zm-38-23.23h38c32.44,0,32.25-47.61,0-47.61h-38Z"/></clipPath><linearGradient id="linear-gradient" x1="758.47" y1="127.56" x2="1536.94" y2="127.56" gradientUnits="userSpaceOnUse"><stop offset="0.02" stop-color="#f6eb16"/><stop offset="0.49" stop-color="#f58020"/><stop offset="1" stop-color="#ed2124"/></linearGradient><clipPath id="clip-path-2"><path class="cls-1" d="M965.43,99.91h22.46v94.66H965.81l-1.15-13.83c-5.37,11.14-20.16,16.52-30.72,16.71-28,.19-48.77-17.09-48.77-50.31,0-32.64,21.7-49.72,49.35-49.53,12.67,0,24.77,6,30.14,15.36ZM908.6,147.14c0,18.05,12.48,28.8,28,28.8,36.86,0,36.86-57.4,0-57.4C921.08,118.54,908.6,129.09,908.6,147.14Z"/></clipPath><clipPath id="clip-path-3"><path class="cls-1" d="M1029.36,99.91l1.73,11c7.3-11.72,17.09-13.44,26.69-13.44,9.79,0,19.2,3.83,24.38,9l-10.56,20.35c-4.8-4-9.21-6.14-16.89-6.14-12.29,0-23.62,6.52-23.62,24v49.92h-23.42V99.91Z"/></clipPath><clipPath id="clip-path-4"><path class="cls-1" d="M1113.84,60.36v77.57l31.87-38h28v1.34l-38.6,43.21,44,48.38v1.73H1150.9l-37.06-42.82v42.82h-23.42V60.36Z"/></clipPath><clipPath id="clip-path-5"><path class="cls-1" d="M1323.7,128.13c-.39,34.76-21.7,69.51-68.93,69.51s-69.12-34-69.12-69.31,22.66-70.85,69.12-70.85C1301,57.48,1324.08,93,1323.7,128.13Zm-113.09.58c.58,22.08,12.48,45.7,44.16,45.7s43.58-23.81,44-45.89c.38-22.66-12.29-48-44-48S1210,106.05,1210.61,128.71Z"/></clipPath><clipPath id="clip-path-6"><path class="cls-1" d="M1348.27,194.57V121.8h-17.66V101.25h17.66V94.92c0-25.34,17.09-37.06,36.1-37.06a45.67,45.67,0,0,1,24.57,7.68L1400.3,83c-5-3.26-9.6-5-14.4-5-8.06,0-14.2,5.38-14.2,16.9v6.33h27.84V121.8H1371.7v72.77Z"/></clipPath><clipPath id="clip-path-7"><path class="cls-1" d="M1425.65,194.57V121.8H1408V101.25h17.67V94.92c0-25.34,17.09-37.06,36.09-37.06a45.68,45.68,0,0,1,24.58,7.68L1477.68,83c-5-3.26-9.6-5-14.4-5-8.06,0-14.21,5.38-14.21,16.9v6.33h27.84V121.8h-27.84v72.77Z"/></clipPath><clipPath id="clip-path-8"><path class="cls-1" d="M1529.9,180.74c0,20.16-30.72,20.16-30.72,0C1499.18,160.39,1529.9,160.39,1529.9,180.74ZM1527,60.36v99.07h-25.15V60.36Z"/></clipPath></defs><title>parkoff</title><g class="cls-2"><rect class="cls-3" x="758.47" y="21.81" width="778.47" height="211.51"/></g><g class="cls-4"><rect class="cls-3" x="758.47" y="21.81" width="778.47" height="211.51"/></g><g class="cls-5"><rect class="cls-3" x="758.47" y="21.81" width="778.47" height="211.51"/></g><g class="cls-6"><rect class="cls-3" x="758.47" y="21.81" width="778.47" height="211.51"/></g><g class="cls-7"><rect class="cls-3" x="758.47" y="21.81" width="778.47" height="211.51"/></g><g class="cls-8"><rect class="cls-3" x="758.47" y="21.81" width="778.47" height="211.51"/></g><g class="cls-9"><rect class="cls-3" x="758.47" y="21.81" width="778.47" height="211.51"/></g><g class="cls-10"><rect class="cls-3" x="758.47" y="21.81" width="778.47" height="211.51"/></g></svg>