<svg id="Layer_1" data-name="Layer 1" xmlns="http://www.w3.org/2000/svg" xmlns:xlink="http://www.w3.org/1999/xlink" viewBox="0 0 2305.97 255.12"><defs><style>.cls-1{fill:none;}.cls-2{clip-path:url(#clip-path);}.cls-3{fill:url(#linear-gradient);}.cls-4{clip-path:url(#clip-path-2);}.cls-5{clip-path:url(#clip-path-3);}.cls-6{clip-path:url(#clip-path-4);}.cls-7{clip-path:url(#clip-path-5);}.cls-8{clip-path:url(#clip-path-6);}.cls-9{clip-path:url(#clip-path-7);}.cls-10{clip-path:url(#clip-path-8);}.cls-11{clip-path:url(#clip-path-9);}.cls-12{clip-path:url(#clip-path-10);}.cls-13{clip-path:url(#clip-path-11);}.cls-14{clip-path:url(#clip-path-12);}.cls-15{clip-path:url(#clip-path-13);}.cls-16{clip-path:url(#clip-path-14);}.cls-17{clip-path:url(#clip-path-15);}.cls-18{clip-path:url(#clip-path-16);}.cls-19{clip-path:url(#clip-path-17);}.cls-20{clip-path:url(#clip-path-18);}.cls-21{clip-path:url(#clip-path-19);}.cls-22{clip-path:url(#clip-path-20);}.cls-23{clip-path:url(#clip-path-21);}.cls-24{clip-path:url(#clip-path-22);}</style><clipPath id="clip-path"><path class="cls-1" d="M78.47,154.92h-38v39.55H15.11V60.07c21.12,0,42.24-.19,63.36-.19C144.13,59.88,144.32,154.92,78.47,154.92Zm-38-23.23h38c32.45,0,32.25-47.62,0-47.62h-38Z"/></clipPath><linearGradient id="linear-gradient" x1="-6.23" y1="127.56" x2="2303.04" y2="127.56" gradientUnits="userSpaceOnUse"><stop offset="0.02" stop-color="#f6eb16"/><stop offset="0.49" stop-color="#f58020"/><stop offset="1" stop-color="#ed2124"/></linearGradient><clipPath id="clip-path-2"><path class="cls-1" d="M214.21,99.82h22.47v94.65H214.6l-1.16-13.82c-5.37,11.13-20.16,16.51-30.72,16.7-28,.19-48.77-17.09-48.77-50.3,0-32.64,21.7-49.73,49.35-49.54,12.67,0,24.77,5.95,30.14,15.36Zm-56.83,47.23c0,18,12.48,28.8,28,28.8,36.87,0,36.87-57.41,0-57.41C169.86,118.44,157.38,129,157.38,147.05Z"/></clipPath><clipPath id="clip-path-3"><path class="cls-1" d="M278.15,99.82l1.72,10.94c7.3-11.71,17.09-13.44,26.69-13.44,9.79,0,19.2,3.84,24.39,9L320.39,126.7c-4.8-4-9.22-6.15-16.9-6.15-12.29,0-23.62,6.53-23.62,24v49.92H256.45V99.82Z"/></clipPath><clipPath id="clip-path-4"><path class="cls-1" d="M362.62,60.26v77.57l31.88-38h28v1.34l-38.59,43.2,44,48.38v1.73H399.68l-37.06-42.81v42.81H339.2V60.26Z"/></clipPath><clipPath id="clip-path-5"><path class="cls-1" d="M572.48,128c-.38,34.75-21.7,69.5-68.93,69.5s-69.12-34-69.12-69.31,22.66-70.85,69.12-70.85C549.82,57.38,572.86,92.9,572.48,128Zm-113.09.58c.58,22.08,12.48,45.69,44.16,45.69s43.59-23.81,44-45.89c.38-22.65-12.29-48-44-48S458.82,106,459.39,128.62Z"/></clipPath><clipPath id="clip-path-6"><path class="cls-1" d="M597.05,194.47V121.7H579.39V101.16h17.66V94.82c0-25.34,17.09-37,36.1-37a45.73,45.73,0,0,1,24.58,7.68l-8.65,17.47c-5-3.26-9.59-5-14.39-5-8.07,0-14.21,5.37-14.21,16.89v6.34h27.84V121.7H620.48v72.77Z"/></clipPath><clipPath id="clip-path-7"><path class="cls-1" d="M674.43,194.47V121.7H656.77V101.16h17.66V94.82c0-25.34,17.09-37,36.1-37a45.67,45.67,0,0,1,24.57,7.68l-8.64,17.47c-5-3.26-9.6-5-14.4-5-8.06,0-14.21,5.37-14.21,16.89v6.34h27.84V121.7H697.85v72.77Z"/></clipPath><clipPath id="clip-path-8"><path class="cls-1" d="M778.68,180.65c0,20.16-30.72,20.16-30.72,0C748,160.3,778.68,160.3,778.68,180.65ZM775.8,60.26v99.07H750.65V60.26Z"/></clipPath><clipPath id="clip-path-9"><path class="cls-1" d="M905,154.92H867v39.55H841.66V60.07c21.12,0,42.24-.19,63.36-.19C970.68,59.88,970.88,154.92,905,154.92Zm-38-23.23h38c32.45,0,32.26-47.62,0-47.62H867Z"/></clipPath><clipPath id="clip-path-10"><path class="cls-1" d="M987.39,99.82l1.72,10.94c7.3-11.71,17.09-13.44,26.69-13.44,9.79,0,19.2,3.84,24.39,9l-10.56,20.36c-4.8-4-9.22-6.15-16.9-6.15-12.29,0-23.62,6.53-23.62,24v49.92H965.69V99.82Z"/></clipPath><clipPath id="clip-path-11"><path class="cls-1" d="M1143.1,147.24c0,27.26-18.63,49.34-49.35,49.34s-49.15-22.08-49.15-49.34c0-27.07,18.82-49.34,49-49.34S1143.1,120.17,1143.1,147.24Zm-75.07,0c0,14.4,8.63,27.84,25.72,27.84s25.73-13.44,25.73-27.84c0-14.21-10-28-25.73-28C1076.86,119.21,1068,133,1068,147.24Z"/></clipPath><clipPath id="clip-path-12"><path class="cls-1" d="M1240.44,182.38c-10.94,10.75-22.46,15-36.48,15-27.46,0-50.3-16.51-50.3-50.11s22.84-50.11,50.3-50.11c13.44,0,23.81,3.84,34.18,14l-14.79,15.56a28.72,28.72,0,0,0-19-7.49c-15.74,0-27.26,11.52-27.26,28,0,18,12.29,27.65,26.88,27.65,7.49,0,15-2.11,20.74-7.87Z"/></clipPath><clipPath id="clip-path-13"><path class="cls-1" d="M1274.61,155.5c1.54,11.71,11.71,20.16,28.23,20.16,8.64,0,20-3.27,25.34-8.84l15,14.79c-10,10.37-26.31,15.36-40.71,15.36-32.64,0-52-20.16-52-50.5,0-28.8,19.58-49.53,50.3-49.53,31.68,0,51.46,19.58,47.81,58.56Zm51.46-19.4c-1.54-12.28-11.14-18.43-24.58-18.43-12.67,0-23,6.15-26.49,18.43Z"/></clipPath><clipPath id="clip-path-14"><path class="cls-1" d="M1428.4,125c-6.72-6.34-14.4-8.45-23.42-8.45-11.14,0-17.28,3.46-17.28,9.41,0,6.14,5.57,9.6,17.66,10.37,17.86,1.15,40.51,5.18,40.51,30.33,0,16.71-13.63,31.11-40.7,31.11-15,0-30-2.5-43.78-16.9l11.52-16.7c6.72,7.48,22.08,13.05,32.64,13.24,8.84.2,17.09-4.41,17.09-11.32,0-6.53-5.37-9.22-18.81-10-17.86-1.34-39.17-7.87-39.17-29.37,0-21.89,22.65-29.57,39.93-29.57,14.79,0,25.92,2.88,36.87,12.48Z"/></clipPath><clipPath id="clip-path-15"><path class="cls-1" d="M1522.67,125c-6.72-6.34-14.4-8.45-23.42-8.45-11.14,0-17.28,3.46-17.28,9.41,0,6.14,5.57,9.6,17.66,10.37,17.86,1.15,40.52,5.18,40.52,30.33,0,16.71-13.64,31.11-40.71,31.11-15,0-30-2.5-43.78-16.9l11.52-16.7c6.72,7.48,22.09,13.05,32.64,13.24,8.84.2,17.09-4.41,17.09-11.32,0-6.53-5.37-9.22-18.81-10-17.86-1.34-39.17-7.87-39.17-29.37,0-21.89,22.65-29.57,39.93-29.57,14.79,0,25.92,2.88,36.87,12.48Z"/></clipPath><clipPath id="clip-path-16"><path class="cls-1" d="M1708.34,137.06c0,34.76-22.08,60.1-59.14,60.1-34.37,0-58.94-20.54-58.94-58.56h25c0,23,11.13,34.75,34,34.75,23,0,33.79-15.93,33.79-36.29V83.69h-40.51V60.07h65.86Z"/></clipPath><clipPath id="clip-path-17"><path class="cls-1" d="M1822.58,147.24c0,27.26-18.63,49.34-49.35,49.34s-49.15-22.08-49.15-49.34c0-27.07,18.82-49.34,49-49.34S1822.58,120.17,1822.58,147.24Zm-75.07,0c0,14.4,8.64,27.84,25.72,27.84S1799,161.64,1799,147.24c0-14.21-10-28-25.73-28C1756.34,119.21,1747.51,133,1747.51,147.24Z"/></clipPath><clipPath id="clip-path-18"><path class="cls-1" d="M1862.7,99.82v49.53c0,14.4,7.87,25.35,22.85,25.35,14.4,0,24.19-12.1,24.19-26.5V99.82H1933v94.84h-20.93l-1.54-12.86c-9.79,9.6-18.81,14.21-32.06,14.21-22.66,0-39.17-17.09-39.17-46.47V99.82Z"/></clipPath><clipPath id="clip-path-19"><path class="cls-1" d="M1975.41,99.82l1.72,10.94c7.3-11.71,17.09-13.44,26.69-13.44,9.79,0,19.2,3.84,24.39,9l-10.56,20.36c-4.8-4-9.22-6.15-16.9-6.15-12.29,0-23.62,6.53-23.62,24v49.92h-23.42V99.82Z"/></clipPath><clipPath id="clip-path-20"><path class="cls-1" d="M2106.73,194.47V144.94c0-14.4-7.87-25.35-22.85-25.35-14.4,0-24.19,12.1-24.19,26.5v48.38h-23.23V99.62h20.93l1.53,12.87c9.6-9.41,19.2-14.21,31.11-14.21,22.27,0,40.13,16.7,40.13,46.46v49.73Z"/></clipPath><clipPath id="clip-path-21"><path class="cls-1" d="M2225.39,99.82h22.46v94.65h-22.08l-1.15-13.82c-5.38,11.13-20.16,16.51-30.72,16.7-28,.19-48.77-17.09-48.77-50.3,0-32.64,21.7-49.73,49.35-49.54,12.67,0,24.76,5.95,30.14,15.36Zm-56.83,47.23c0,18,12.48,28.8,28,28.8,36.86,0,36.86-57.41,0-57.41C2181,118.44,2168.56,129,2168.56,147.05Z"/></clipPath><clipPath id="clip-path-22"><path class="cls-1" d="M2290.86,60.26V194.47h-23.23V60.26Z"/></clipPath></defs><title>process</title><g class="cls-2"><rect class="cls-3" x="-6.23" y="21.81" width="2309.27" height="211.51"/></g><g class="cls-4"><rect class="cls-3" x="-6.23" y="21.81" width="2309.27" height="211.51"/></g><g class="cls-5"><rect class="cls-3" x="-6.23" y="21.81" width="2309.27" height="211.51"/></g><g class="cls-6"><rect class="cls-3" x="-6.23" y="21.81" width="2309.27" height="211.51"/></g><g class="cls-7"><rect class="cls-3" x="-6.23" y="21.81" width="2309.27" height="211.51"/></g><g class="cls-8"><rect class="cls-3" x="-6.23" y="21.81" width="2309.27" height="211.51"/></g><g class="cls-9"><rect class="cls-3" x="-6.23" y="21.81" width="2309.27" height="211.51"/></g><g class="cls-10"><rect class="cls-3" x="-6.23" y="21.81" width="2309.27" height="211.51"/></g><g class="cls-11"><rect class="cls-3" x="-6.23" y="21.81" width="2309.27" height="211.51"/></g><g class="cls-12"><rect class="cls-3" x="-6.23" y="21.81" width="2309.27" height="211.51"/></g><g class="cls-13"><rect class="cls-3" x="-6.23" y="21.81" width="2309.27" height="211.51"/></g><g class="cls-14"><rect class="cls-3" x="-6.23" y="21.81" width="2309.27" height="211.51"/></g><g class="cls-15"><rect class="cls-3" x="-6.23" y="21.81" width="2309.27" height="211.51"/></g><g class="cls-16"><rect class="cls-3" x="-6.23" y="21.81" width="2309.27" height="211.51"/></g><g class="cls-17"><rect class="cls-3" x="-6.23" y="21.81" width="2309.27" height="211.51"/></g><g class="cls-18"><rect class="cls-3" x="-6.23" y="21.81" width="2309.27" height="211.51"/></g><g class="cls-19"><rect class="cls-3" x="-6.23" y="21.81" width="2309.27" height="211.51"/></g><g class="cls-20"><rect class="cls-3" x="-6.23" y="21.81" width="2309.27" height="211.51"/></g><g class="cls-21"><rect class="cls-3" x="-6.23" y="21.81" width="2309.27" height="211.51"/></g><g class="cls-22"><rect class="cls-3" x="-6.23" y="21.81" width="2309.27" height="211.51"/></g><g class="cls-23"><rect class="cls-3" x="-6.23" y="21.81" width="2309.27" height="211.51"/></g><g class="cls-24"><rect class="cls-3" x="-6.23" y="21.81" width="2309.27" height="211.51"/></g></svg>